<svg xmlns="http://www.w3.org/2000/svg" viewBox="0 0 128 128" fill="none">
  <circle cx="64" cy="64" r="64" fill="#AB9FF2"/>
  <path d="M110.4 64.8C110.4 82.6 96.1 97.2 78.1 97.2H49.9C31.9 97.2 17.6 82.6 17.6 64.8C17.6 47 31.9 32.4 49.9 32.4H78.1C96.1 32.4 110.4 47 110.4 64.8Z" fill="url(#paint0_linear)"/>
  <path d="M101.4 64.8C101.4 77.5 91.3 87.8 78.6 87.8H49.4C36.7 87.8 26.6 77.5 26.6 64.8C26.6 52.1 36.7 41.8 49.4 41.8H78.6C91.3 41.8 101.4 52.1 101.4 64.8Z" fill="#AB9FF2"/>
  <circle cx="80" cy="64.8" r="12" fill="white"/>
  <defs>
    <linearGradient id="paint0_linear" x1="17.6" y1="64.8" x2="110.4" y2="64.8" gradientUnits="userSpaceOnUse">
      <stop stop-color="#534BB1"/>
      <stop offset="1" stop-color="#551BF9"/>
    </linearGradient>
  </defs>
</svg>
